Scooby-Doo: Mask of the Blue Falcon (2013) 


When the gruesome villain Mr. Hyde unleashes monster bats, howling hounds and sinister slime upon the festivities, the super-powered tag team of Shaggy and Scooby-Doo tap into their inner super heroes to prevent the entire event from being smothered in ghoulish green goo! Like, right on, Dog Wonder!


Format                                   : MPEG-4
Format profile                           : Base Media
Codec ID                                 : isom
File size                                : 1.56 GiB
Duration                                 : 1h 16mn
Overall bit rate mode                    : Variable
Overall bit rate                         : 2 926 Kbps
Movie name                               : Scooby-Doo!: Mask of the Blue Falcon ΓÇö Original Movie
Performer                                : Michael Goguen
Genre                                    : Kids & Family
Recorded date                            : UTC 2013-02-26 08:00:00
Tagged date                              : UTC 2012-12-21 08:52:53
Cover                                    : Yes

Video
ID                                       : 1
Format                                   : AVC
Format/Info                              : Advanced Video Codec
Format profile                           : Baseline@L3.0
Format settings, CABAC                   : No
Format settings, ReFrames                : 3 frames
Codec ID                                 : avc1
Codec ID/Info                            : Advanced Video Coding
Duration                                 : 1h 16mn
Bit rate                                 : 2 794 Kbps
Width                                    : 1 280 pixels
Height                                   : 720 pixels
Display aspect ratio                     : 16:9
Frame rate mode                          : Constant
Frame rate                               : 23.976 fps
Color space                              : YUV
Chroma subsampling                       : 4:2:0
Bit depth                                : 8 bits
Scan type                                : Progressive
Bits/(Pixel*Frame)                       : 0.126
Stream size                              : 1.49 GiB (95%)
Writing library                          : x264 core 102
Encoding settings                        : cabac=0 / ref=3 / deblock=1:0:0 / 

Audio
ID                                       : 2
Format                                   : AAC
Format/Info                              : Advanced Audio Codec
Format profile                           : LC
Codec ID                                 : 40
Duration                                 : 1h 16mn
Bit rate mode                            : Variable
Bit rate                                 : 128 Kbps
Maximum bit rate                         : 197 Kbps
Channel(s)                               : 2 channels
Channel positions                        : Front: L R
Sampling rate                            : 48.0 KHz
Compression mode                         : Lossy
Stream size                              : 69.9 MiB (4%)
Language                                 : English

I MANAGED TO GET THIS MOVIE EARLY I HOPE YOU  ALL ENJOY IT